<?xml version="1.0" standalone="no"?>
<!DOCTYPE svg PUBLIC "-//W3C//DTD SVG 20010904//EN"
 "http://www.w3.org/TR/2001/REC-SVG-20010904/DTD/svg10.dtd">
<svg version="1.0" xmlns="http://www.w3.org/2000/svg"
 width="3000.000000pt" height="2000.000000pt" viewBox="0 0 3000.000000 2000.000000"
 preserveAspectRatio="xMidYMid meet">

<g transform="translate(0.000000,2000.000000) scale(0.100000,-0.100000)"
fill="#000000" stroke="none">
<path d="M3472 11463 c18 -72 88 -199 153 -280 99 -124 245 -226 384 -267 47
-14 122 -16 527 -16 283 0 483 -4 498 -10 l26 -10 0 -1190 0 -1190 290 0 290
0 0 1189 0 1189 31 11 c22 7 187 11 504 11 435 0 476 1 526 19 238 81 441 280
519 506 11 32 20 62 20 67 0 4 -850 8 -1889 8 l-1889 0 10 -37z"/>
<path d="M8684 11468 c3 -18 24 -69 46 -113 99 -205 272 -362 473 -430 l77
-25 1137 2 1138 3 70 29 c160 65 306 189 398 337 41 66 97 193 97 219 0 7
-607 10 -1721 10 l-1721 0 6 -32z"/>
<path d="M13800 10615 l0 -885 1345 0 1345 0 0 -315 0 -315 -1059 0 -1060 0
-73 -26 c-180 -64 -349 -174 -474 -306 -83 -88 -184 -232 -184 -263 0 -3 772
-5 1715 -5 l1715 0 -2 908 -3 907 -1342 3 -1343 2 0 295 0 295 1040 0 1041 0
78 30 c151 58 307 171 404 290 59 74 137 217 137 252 0 17 -66 18 -1640 18
l-1640 0 0 -885z"/>
<path d="M18730 10000 l0 -1500 1345 0 1346 0 62 31 c202 102 345 264 417 475
11 31 20 63 20 71 0 11 -218 13 -1300 13 l-1300 0 0 1205 0 1205 -295 0 -295
0 0 -1500z"/>
<path d="M23090 11489 c0 -6 14 -45 31 -87 88 -221 285 -412 494 -478 l76 -24
1123 0 c1241 0 1159 -4 1296 65 195 98 358 295 421 508 l8 27 -1725 0 c-1231
0 -1724 -3 -1724 -11z"/>
<path d="M8680 10305 c0 -8 11 -45 25 -82 76 -200 248 -380 449 -467 l71 -31
1157 -3 c1151 -2 1158 -2 1220 19 133 44 261 135 357 255 62 76 146 233 157
292 l7 32 -1722 0 c-1511 0 -1721 -2 -1721 -15z"/>
<path d="M23180 9405 l0 -905 290 0 290 0 0 605 0 605 1058 -2 1057 -3 3 -602
2 -603 290 0 290 0 0 905 0 905 -1640 0 -1640 0 0 -905z"/>
<path d="M8684 9068 c12 -61 93 -213 154 -288 98 -121 211 -204 350 -254 l73
-26 1139 0 1139 0 71 26 c167 60 305 172 408 332 42 64 102 198 102 226 0 15
-164 16 -1721 16 l-1721 0 6 -32z"/>
</g>
</svg>
